<?xml version="1.0" encoding="utf-8"?>
<!-- Generator: Adobe Illustrator 16.0.0, SVG Export Plug-In . SVG Version: 6.00 Build 0)  -->
<!DOCTYPE svg PUBLIC "-//W3C//DTD SVG 1.1//EN" "http://www.w3.org/Graphics/SVG/1.1/DTD/svg11.dtd">
<svg version="1.1" id="Layer_1" xmlns="http://www.w3.org/2000/svg" xmlns:xlink="http://www.w3.org/1999/xlink" x="0px" y="0px"
	 width="322.02px" height="322.02px" viewBox="0 0 322.02 322.02" enable-background="new 0 0 322.02 322.02" xml:space="preserve">
<title>HTML5 Logo</title>
<rect x="0" y="3" fill="#201B6E" width="322.02" height="315.312"/>
<path fill="#FFFFFF" d="M117.471,163.52h28.544l-14.271-55.348L117.471,163.52z M24.363,27.69v266.086h273.703V27.69H24.363z
	 M161.679,224.206l-10.443-35.971h-38.639l-10.443,35.971H75.698l37.247-127.173V83.109h35.506l42.468,141.097H161.679z
	 M231.997,224.206h-28.545v-107.33h28.545V224.206z M217.898,103.996c-8.17,0-14.796-6.546-14.796-14.62
	c0-8.075,6.624-14.621,14.796-14.621s14.795,6.546,14.795,14.621C232.693,97.45,226.069,103.996,217.898,103.996z"/>
</svg>
