<?xml version="1.0" encoding="utf-8"?>
<!-- Generator: Adobe Illustrator 16.0.0, SVG Export Plug-In . SVG Version: 6.00 Build 0)  -->
<!DOCTYPE svg PUBLIC "-//W3C//DTD SVG 1.1//EN" "http://www.w3.org/Graphics/SVG/1.1/DTD/svg11.dtd">
<svg version="1.1" id="Layer_1" xmlns="http://www.w3.org/2000/svg" xmlns:xlink="http://www.w3.org/1999/xlink" x="0px" y="0px"
	 width="322.02px" height="322.02px" viewBox="0 0 322.02 322.02" enable-background="new 0 0 322.02 322.02" xml:space="preserve">
<title>HTML5 Logo</title>
<path fill="#201B6E" d="M161.326-0.006L10.754,52.983l23.793,197.274l126.938,69.77l127.594-70.716l23.786-197.266L161.326-0.006z"
	/>
<path fill="#201B6E" d="M301.647,64.286L162.965,16.995v290.379l116.221-64.322L301.647,64.286z"/>
<path fill="#201B6E" d="M27.875,65.14l20.658,178.767l114.428,63.467V16.988L27.875,65.14z"/>
<path opacity="0.4" fill="#FFFFFF" enable-background="new    " d="M26.875,65.143L47.533,243.91l114.428,63.467V16.991
	L26.875,65.143z"/>
<path fill="#FFFFFF" d="M194.109,161.424l-31.892-66.602l-28.078,66.602H194.109z M206.268,189.43h-84.54l-18.914,47.307
	l-35.179,0.648l94.329-209.847l97.619,209.847h-32.609L206.268,189.43z"/>
<path fill="#EBEBEB" d="M161.965,27.538l0.25,67.284l31.86,66.654h-32.04l-0.07,27.911l44.303,0.043l20.707,47.965l33.662,0.625
	L161.965,27.538z"/>
</svg>
