<?xml version="1.0" encoding="utf-8"?>
<!-- Generator: Adobe Illustrator 16.0.0, SVG Export Plug-In . SVG Version: 6.00 Build 0)  -->
<!DOCTYPE svg PUBLIC "-//W3C//DTD SVG 1.1//EN" "http://www.w3.org/Graphics/SVG/1.1/DTD/svg11.dtd">
<svg version="1.1" id="Layer_1" xmlns="http://www.w3.org/2000/svg" xmlns:xlink="http://www.w3.org/1999/xlink" x="0px" y="0px"
	 width="322.02px" height="322.02px" viewBox="0 0 322.02 322.02" enable-background="new 0 0 322.02 322.02" xml:space="preserve">
<title>HTML5 Logo</title>
<g>
	<g>
		<g>
			<path fill="#4D4D4D" d="M8.642,63.708c-4.245-4.384-7.718-2.978-7.718,3.125v166.669c0,6.101,3.898,7.976,8.663,4.162
				l85.734-68.586c4.765-3.812,5.19-10.516,0.945-14.9L8.642,63.708z"/>
		</g>
		<g>
			<path fill="#4D4D4D" d="M322.088,67.955c0-6.102-3.445-7.481-7.657-3.067l-84.536,88.624c-4.213,4.416-3.76,11.146,1.005,14.957
				l82.526,66.02c4.765,3.812,8.662,1.938,8.662-4.164V67.955z"/>
		</g>
		<g>
			<path fill="#4D4D4D" d="M220.97,179.114c-4.765-3.812-12.108-3.317-16.319,1.099l-33.602,35.232
				c-4.211,4.416-11.128,4.442-15.373,0.059l-33.708-34.816c-4.244-4.385-11.615-4.854-16.38-1.042l-90.55,72.425
				c-4.765,3.812-3.671,6.93,2.43,6.93h292.292c6.102,0,7.194-3.118,2.43-6.93L220.97,179.114z"/>
		</g>
		<g>
			<path fill="#4D4D4D" d="M303.11,54.021c4.215-4.413,2.671-8.021-3.431-8.021H25.154c-6.102,0-7.618,3.583-3.37,7.962
				l134.034,138.186c4.248,4.381,11.172,4.354,15.387-0.059L303.11,54.021z"/>
		</g>
	</g>
</g>
</svg>
