<?xml version="1.0" encoding="utf-8"?>
<!-- Generator: Adobe Illustrator 16.0.0, SVG Export Plug-In . SVG Version: 6.00 Build 0)  -->
<!DOCTYPE svg PUBLIC "-//W3C//DTD SVG 1.1//EN" "http://www.w3.org/Graphics/SVG/1.1/DTD/svg11.dtd">
<svg version="1.1" id="Layer_1" xmlns="http://www.w3.org/2000/svg" xmlns:xlink="http://www.w3.org/1999/xlink" x="0px" y="0px"
	 width="322.02px" height="322.02px" viewBox="0 0 322.02 322.02" enable-background="new 0 0 322.02 322.02" xml:space="preserve">
<title>HTML5 Logo</title>
<path fill-rule="evenodd" clip-rule="evenodd" fill="#3C3C3C" d="M190.679,233.532c7.112-1.403,13.651-2.396,20.036-4.005
	c19.212-4.845,35.315-14.311,44.211-32.824c9.007-18.748,11.034-38.568,6.574-58.898c-1.971-8.987-6.421-16.877-12.377-23.868
	c-1.34-1.573-1.887-2.867-1.202-5.055c3.918-12.524,2.736-24.885-1.503-37.135c-0.777-2.241-2.014-2.931-4.215-2.883
	c-7.688,0.168-14.819,2.511-21.602,5.82c-5.712,2.788-11.1,6.234-16.763,9.13c-1.617,0.827-3.854,1.4-5.539,0.993
	c-25.016-6.051-49.977-6.028-74.985,0.03c-1.589,0.385-3.787-0.025-5.196-0.89c-10.577-6.49-21.303-12.553-33.771-14.663
	c-7.502-1.271-8.227-0.891-10.258,6.197c-3.229,11.267-3.762,22.558-0.271,33.911c0.333,1.081,0.079,2.848-0.63,3.668
	c-14.409,16.663-17.065,36.241-14.125,57.113c0.831,5.9,2.09,11.823,3.941,17.479c7.618,23.268,24.739,36.015,47.68,41.892
	c6.497,1.664,13.153,2.7,20.129,4.104c-5.258,5.629-8.036,12.209-9.442,19.471c-0.171,0.883-1.21,1.948-2.094,2.291
	c-16.702,6.482-33.527,4.431-44.318-13.072c-5.215-8.46-12.024-14.904-22.083-16.897c-2.529-0.501-5.347-0.307-7.89,0.237
	c-2.925,0.622-3.351,2.449-1.366,4.749c1.152,1.335,2.511,2.606,4.016,3.503c8.61,5.135,14.14,12.846,17.801,21.861
	c6.118,15.059,17.917,21.73,33.296,22.709c7.159,0.456,14.408-0.504,22.01-0.839c0,9.826,0.235,20.014-0.095,30.185
	c-0.174,5.38-5.564,7.991-11.617,6.02c-13.651-4.452-26.548-10.591-38.272-18.842C22.093,260.778-2.528,213.794,0.205,154.306
	C3.604,80.365,57.411,20.141,130.469,5.972c83.286-16.152,164.809,35.031,186.427,117.043
	c21.075,79.951-24.979,164.823-103.466,190.676c-7.829,2.578-12.51-0.73-12.501-8.908c0.014-13.009,0.018-26.02,0.139-39.027
	C201.177,254.002,199.474,242.856,190.679,233.532z"/>
<path fill-rule="evenodd" clip-rule="evenodd" fill="#3C3C3C" d="M104,260.504c1.515,1.452,2.485,2.384,3.457,3.314
	c-1.159,0.779-2.279,2.084-3.489,2.173c-0.992,0.075-2.091-1.296-3.143-2.027C101.72,262.987,102.616,262.011,104,260.504z"/>
<path fill-rule="evenodd" clip-rule="evenodd" fill="#3C3C3C" d="M80.563,259.329c-1.57-2.173-2.651-3.501-3.444-4.984
	c-0.097-0.181,1.824-1.846,2.015-1.709c1.312,0.937,2.546,2.073,3.475,3.382C82.815,256.308,81.703,257.533,80.563,259.329z"/>
<path fill-rule="evenodd" clip-rule="evenodd" fill="#3C3C3C" d="M91.141,264.974c-1.342-1.476-2.34-2.572-3.337-3.668
	c0.924-0.631,2.141-1.982,2.717-1.75c1.412,0.57,2.529,1.872,3.766,2.879C93.414,263.138,92.542,263.844,91.141,264.974z"/>
<path fill-rule="evenodd" clip-rule="evenodd" fill="#3C3C3C" d="M116.507,258.971c1.437,1.336,2.342,2.177,3.246,3.018
	c-1.235,0.894-2.371,2.166-3.745,2.527c-0.765,0.198-1.928-1.126-2.911-1.765C114.083,261.658,115.069,260.565,116.507,258.971z"/>
<path fill-rule="evenodd" clip-rule="evenodd" fill="#3C3C3C" d="M75.222,246.594c-1.235,1.085-2.296,2.228-2.45,2.117
	c-1.201-0.866-2.355-1.884-3.198-3.085c-0.169-0.241,1.055-1.458,1.636-2.227C72.372,244.324,73.534,245.25,75.222,246.594z"/>
<path fill-rule="evenodd" clip-rule="evenodd" fill="#3C3C3C" d="M66.2,240.641c-1.283-1.507-2.27-2.382-2.82-3.474
	c-0.188-0.374,0.721-1.3,1.129-1.972c1.062,0.924,2.211,1.775,3.111,2.838C67.789,238.233,66.965,239.275,66.2,240.641z"/>
</svg>
