<?xml version="1.0" encoding="utf-8"?>
<!-- Generator: Adobe Illustrator 16.0.0, SVG Export Plug-In . SVG Version: 6.00 Build 0)  -->
<!DOCTYPE svg PUBLIC "-//W3C//DTD SVG 1.1//EN" "http://www.w3.org/Graphics/SVG/1.1/DTD/svg11.dtd">
<svg version="1.1" id="Layer_1" xmlns="http://www.w3.org/2000/svg" xmlns:xlink="http://www.w3.org/1999/xlink" x="0px" y="0px"
	 width="322.02px" height="322.02px" viewBox="0 0 322.02 322.02" enable-background="new 0 0 322.02 322.02" xml:space="preserve">
<title>HTML5 Logo</title>
<polygon fill="#201B6E" points="72.16,295.09 51.562,64.055 277.903,64.055 257.281,295.055 164.593,320.75 "/>
<polygon opacity="0.4" fill="#FFFFFF" enable-background="new    " points="164.732,301.109 239.629,280.344 257.25,82.945 
	164.732,82.945 "/>
<polygon fill="#EBEBEB" points="164.732,168.633 127.237,168.633 124.647,139.617 164.732,139.617 164.732,111.281 164.634,111.281 
	93.68,111.281 94.359,118.884 101.323,196.968 164.732,196.968 "/>
<polygon fill="#EBEBEB" points="164.732,242.225 164.608,242.257 133.051,233.734 131.033,211.137 115.698,211.137 102.588,211.137 
	106.558,255.627 164.602,271.741 164.732,271.704 "/>
<path fill="#201B6E" d="M72.62,1.27H87.02v14.227h13.172V1.27h14.4v43.082h-14.4V29.925H87.021v14.426H72.621L72.62,1.27L72.62,1.27
	z"/>
<path fill="#201B6E" d="M133.529,15.556h-12.676V1.27h39.762v14.287H147.93v28.795h-14.4L133.529,15.556L133.529,15.556z"/>
<path fill="#201B6E" d="M166.923,1.27h15.014l9.237,15.138l9.227-15.138h15.021v43.082h-14.341V22.998l-9.906,15.318h-0.249
	l-9.913-15.318v21.354h-14.089L166.923,1.27L166.923,1.27z"/>
<path fill="#201B6E" d="M222.589,1.27h14.404v28.842h20.25v14.24h-34.654V1.27L222.589,1.27z"/>
<polygon fill="#FFFFFF" points="164.634,168.633 164.634,196.968 199.526,196.968 196.237,233.718 164.634,242.247 164.634,271.729 
	222.723,255.627 223.149,250.841 229.808,176.242 230.5,168.633 222.864,168.633 "/>
<polygon fill="#FFFFFF" points="164.634,111.281 164.634,128.88 164.634,139.548 164.634,139.617 232.987,139.617 232.987,139.617 
	233.077,139.617 233.645,133.248 234.937,118.884 235.615,111.281 "/>
</svg>
