<?xml version="1.0" encoding="utf-8"?>
<!-- Generator: Adobe Illustrator 16.0.0, SVG Export Plug-In . SVG Version: 6.00 Build 0)  -->
<!DOCTYPE svg PUBLIC "-//W3C//DTD SVG 1.1//EN" "http://www.w3.org/Graphics/SVG/1.1/DTD/svg11.dtd">
<svg version="1.1" id="Layer_1" xmlns="http://www.w3.org/2000/svg" xmlns:xlink="http://www.w3.org/1999/xlink" x="0px" y="0px"
	 width="322.02px" height="322.02px" viewBox="0 0 322.02 322.02" enable-background="new 0 0 322.02 322.02" xml:space="preserve">
<title>HTML5 Logo</title>
<g>
	<path fill="#201B6E" d="M42.408,51.78c-0.255,0.595-0.491,1.196-0.766,1.782c-5.517,11.806-9.025,24.177-10.655,37.108
		c-1.079,8.562-1.286,17.148-0.713,25.731c1.098,16.444,4.95,32.266,11.155,47.531c8.114,19.953,19.866,37.541,34.577,53.196
		c11.781,12.542,25.077,23.226,39.808,32.116c14.724,8.883,30.395,15.583,46.972,20.125c5.228,1.433,10.57,2.413,15.941,3.137
		c5.534,0.748,11.088,1.428,16.655,1.837c4.736,0.351,9.504,0.382,14.259,0.364c14.001-0.055,27.773-1.893,41.257-5.699
		c16.652-4.697,31.885-12.197,45.302-23.223c5.432-4.462,10.39-9.399,14.887-14.805c0.517-0.621,1.058-1.22,1.872-1.672
		c-0.147,0.446-0.245,0.916-0.447,1.338c-1.129,2.324-2.197,4.684-3.441,6.945c-15.216,27.674-36.818,48.643-65.476,62.149
		c-11.68,5.503-23.944,9.156-36.646,11.438c-13.628,2.45-27.356,2.952-41.14,2.295c-9.673-0.461-19.283-1.638-28.791-3.477
		c-3.177-0.614-6.274-1.682-9.368-2.671c-30.582-9.777-56.929-26.353-79.047-49.591c-18.519-19.456-32.069-41.92-40.235-67.562
		c-3.146-9.879-5.293-19.971-6.403-30.292c-0.959-8.91-1.134-17.818-0.308-26.734c1.8-19.365,7.713-37.323,18.503-53.59
		c0.69-1.042,1.419-2.063,2.191-3.045c6.19-7.869,12.397-15.725,18.603-23.583c0.355-0.452,0.741-0.882,1.113-1.322
		C42.18,51.667,42.294,51.723,42.408,51.78z"/>
	<path fill="#201B6E" d="M123.91,23.863c-3.653,7.265-6.322,14.87-7.918,22.848c-1.83,9.143-2.292,18.36-1.463,27.637
		c1.939,21.699,9.996,41.051,22.994,58.339c19.073,25.367,44.084,42.061,74.807,50.083c11.447,2.989,23.132,4.219,34.956,3.615
		c19.687-1.004,37.83-6.678,53.941-18.271c6.817-4.905,12.782-10.7,17.907-17.357c0.405-0.527,0.818-1.05,1.245-1.563
		c0.096-0.116,0.26-0.174,0.402-0.264c0.321,0.636-0.148,1.135-0.346,1.636c-1.891,4.825-4.205,9.445-6.917,13.857
		c-14.34,23.336-34.764,38.537-61.237,45.52c-13.502,3.56-27.262,4.568-41.184,3.722c-6.5-0.397-12.961-1.07-19.382-2.154
		c-0.982-0.166-1.975-0.342-2.929-0.629c-12.19-3.664-23.818-8.597-34.62-15.389c-9.794-6.16-18.696-13.405-26.664-21.798
		c-1.321-1.393-2.715-2.713-4.026-4.111c-0.913-0.973-1.793-1.984-2.597-3.046c-7.729-10.214-14.531-20.968-19.208-32.962
		c-3.81-9.773-6.226-19.863-7.126-30.325c-1.168-13.562,0.229-26.809,4.684-39.695c2.496-7.213,5.896-13.977,10.276-20.229
		c4.212-6.011,8.474-11.988,12.718-17.976c0.337-0.476,0.676-0.957,1.075-1.376c0.117-0.123,0.445-0.046,0.676-0.061L123.91,23.863z
		"/>
	<path fill="#201B6E" d="M191.099,8.399c-2.124,4.016-3.399,8.323-4.253,12.753c-2.345,12.153-0.827,23.961,3.824,35.308
		c9.581,23.365,26.405,39.277,50.143,47.873c5.667,2.051,11.545,3.223,17.5,4.051c4.633,0.646,9.284,1.047,13.963,0.865
		c5.687-0.22,11.276-1.019,16.711-2.802c7.778-2.553,14.422-6.835,19.938-12.875c0.546-0.598,1.104-1.187,1.727-1.849
		c0.041,0.299,0.125,0.477,0.069,0.577c-4.201,7.675-9.372,14.578-16.11,20.232c-8.112,6.809-17.456,10.953-27.841,12.796
		c-7.272,1.291-14.593,1.439-21.93,0.642c-2.98-0.325-5.962-0.696-8.918-1.194c-3.794-0.64-7.407-1.957-10.962-3.392
		c-17.822-7.2-31.875-18.878-41.771-35.417c-4.715-7.883-7.907-16.363-9.188-25.476c-2.256-16.053,1.063-30.828,10.492-44.123
		c1.783-2.516,3.616-5,5.438-7.488c0.293-0.399,0.623-0.831,1.228-0.458L191.099,8.399z"/>
</g>
<path fill="#201B6E" d="M543.307,356.703c-0.104-0.115-0.224-0.221-0.309-0.35c-0.033-0.047-0.01-0.158,0.029-0.217
	c0.033-0.054,0.119-0.076,0.183-0.111c0.015,0.131,0.038,0.262,0.043,0.394c0.002,0.08-0.024,0.159-0.024,0.249
	C543.243,356.678,543.307,356.703,543.307,356.703z"/>
</svg>
