<?xml version="1.0" encoding="utf-8"?>
<!-- Generator: Adobe Illustrator 16.0.0, SVG Export Plug-In . SVG Version: 6.00 Build 0)  -->
<!DOCTYPE svg PUBLIC "-//W3C//DTD SVG 1.1//EN" "http://www.w3.org/Graphics/SVG/1.1/DTD/svg11.dtd">
<svg version="1.1" id="Layer_1" xmlns="http://www.w3.org/2000/svg" xmlns:xlink="http://www.w3.org/1999/xlink" x="0px" y="0px"
	 width="322.02px" height="322.02px" viewBox="0 0 322.02 322.02" enable-background="new 0 0 322.02 322.02" xml:space="preserve">
<title>HTML5 Logo</title>
<g>
	<path fill="#201B6E" d="M0,322.02C0,214.68,0,107.34,0,0c107.34,0,214.68,0,322.02,0c0,107.34,0,214.68,0,322.02
		C214.68,322.02,107.34,322.02,0,322.02z M191.293,265.618c0.211,0.421,0.339,0.69,0.479,0.954
		c6.945,12.979,17.479,21.746,31.39,26.369c12.977,4.312,26.22,4.75,39.528,1.776c8.284-1.852,15.813-5.368,22.03-11.319
		c6.642-6.356,10.301-14.187,11.318-23.279c0.827-7.391,0.315-14.663-2.131-21.729c-3.146-9.082-9.436-15.576-17.229-20.824
		c-8.384-5.646-17.687-9.438-26.901-13.42c-5.093-2.199-10.267-4.278-14.627-7.848c-4.51-3.689-5.774-8.555-4.572-14.02
		c1.087-4.938,4.48-8.043,9.293-9.154c7.794-1.803,14.688-0.061,19.997,6.266c1.528,1.822,2.809,3.854,4.306,5.935
		c7.746-4.974,15.523-9.97,23.398-15.025c-0.713-1.181-1.312-2.237-1.973-3.256c-5.066-7.795-11.514-14.033-20.333-17.392
		c-11.303-4.304-22.871-4.616-34.575-1.845c-18.002,4.263-29.865,18.911-30.297,37.398c-0.214,9.191,1.633,17.841,6.909,25.533
		c4.362,6.363,10.183,11.188,16.941,14.699c6.946,3.609,14.165,6.701,21.282,9.981c5.039,2.322,10.165,4.442,14.714,7.731
		c8.275,5.986,8.261,19.244-2.58,24.082c-8.014,3.574-16.188,3.242-24.277,0.273c-6.835-2.508-11.643-7.527-15.684-13.381
		c-0.6-0.866-1.177-1.746-1.837-2.73C207.646,256.152,199.543,260.843,191.293,265.618z M144.71,147.899c0,0.952,0,1.761,0,2.569
		c0.001,32.747,0.015,65.495-0.023,98.243c-0.003,2.846-0.216,5.706-0.56,8.533c-0.836,6.861-4.715,10.904-11.518,11.943
		c-5.896,0.9-11.483,0.144-15.862-4.356c-1.901-1.953-3.436-4.28-5.032-6.513c-0.965-1.346-1.733-2.83-2.641-4.338
		c-8.258,4.998-16.392,9.922-24.501,14.832c0.105,0.357,0.138,0.566,0.227,0.746c5.677,11.455,14.197,19.83,26.438,24.006
		c11.269,3.843,22.745,3.992,34.199,1.025c12.443-3.223,21.325-10.715,26.034-22.844c2.756-7.1,3.46-14.516,3.453-22.062
		c-0.031-33.412-0.014-66.822-0.017-100.232c0-0.495-0.043-0.991-0.068-1.553C164.814,147.899,154.887,147.899,144.71,147.899z"/>
	<path fill="#FFFFFF" d="M191.293,265.618c8.25-4.774,16.353-9.466,24.573-14.222c0.659,0.983,1.236,1.863,1.836,2.729
		c4.041,5.853,8.849,10.873,15.684,13.381c8.089,2.97,16.265,3.302,24.277-0.274c10.841-4.836,10.855-18.094,2.58-24.08
		c-4.549-3.289-9.675-5.41-14.714-7.732c-7.117-3.279-14.336-6.372-21.282-9.982c-6.76-3.512-12.579-8.336-16.941-14.698
		c-5.276-7.692-7.123-16.343-6.909-25.533c0.432-18.487,12.295-33.136,30.297-37.398c11.704-2.771,23.272-2.459,34.575,1.845
		c8.819,3.358,15.267,9.597,20.333,17.392c0.661,1.018,1.26,2.075,1.974,3.256c-7.875,5.057-15.653,10.053-23.399,15.025
		c-1.497-2.079-2.776-4.111-4.306-5.934c-5.309-6.326-12.203-8.068-19.997-6.267c-4.812,1.11-8.206,4.217-9.293,9.154
		c-1.202,5.465,0.062,10.329,4.572,14.02c4.36,3.568,9.534,5.647,14.627,7.849c9.216,3.979,18.519,7.772,26.901,13.42
		c7.793,5.246,14.082,11.742,17.229,20.822c2.446,7.066,2.958,14.34,2.131,21.729c-1.019,9.094-4.678,16.923-11.318,23.28
		c-6.217,5.949-13.746,9.468-22.03,11.318c-13.31,2.975-26.553,2.535-39.528-1.777c-13.91-4.621-24.443-13.391-31.39-26.368
		C191.632,266.309,191.504,266.039,191.293,265.618z"/>
	<path fill="#FFFFFF" d="M144.71,147.899c10.177,0,20.104,0,30.13,0c0.025,0.562,0.068,1.058,0.068,1.553
		c0.003,33.411-0.016,66.821,0.017,100.233c0.007,7.547-0.697,14.963-3.453,22.062c-4.709,12.129-13.591,19.621-26.034,22.844
		c-11.454,2.966-22.932,2.816-34.199-1.026c-12.24-4.174-20.762-12.549-26.438-24.004c-0.089-0.181-0.12-0.39-0.227-0.746
		c8.109-4.91,16.243-9.836,24.501-14.834c0.906,1.508,1.676,2.994,2.641,4.34c1.598,2.23,3.131,4.559,5.032,6.512
		c4.379,4.5,9.966,5.258,15.862,4.355c6.803-1.037,10.682-5.08,11.518-11.942c0.344-2.827,0.557-5.688,0.56-8.533
		c0.038-32.748,0.024-65.496,0.023-98.243C144.71,149.66,144.71,148.851,144.71,147.899z"/>
</g>
<path fill="#201B6E" d="M543.307,356.703c-0.104-0.115-0.224-0.221-0.309-0.35c-0.033-0.047-0.01-0.158,0.029-0.217
	c0.033-0.054,0.119-0.076,0.183-0.111c0.015,0.131,0.038,0.262,0.043,0.394c0.002,0.08-0.024,0.159-0.024,0.249
	C543.243,356.678,543.307,356.703,543.307,356.703z"/>
</svg>
