<?xml version="1.0" encoding="utf-8"?>
<!-- Generator: Adobe Illustrator 16.0.0, SVG Export Plug-In . SVG Version: 6.00 Build 0)  -->
<!DOCTYPE svg PUBLIC "-//W3C//DTD SVG 1.1//EN" "http://www.w3.org/Graphics/SVG/1.1/DTD/svg11.dtd">
<svg version="1.1" id="Layer_1" xmlns="http://www.w3.org/2000/svg" xmlns:xlink="http://www.w3.org/1999/xlink" x="0px" y="0px"
	 width="322.02px" height="322.02px" viewBox="0 0 322.02 322.02" enable-background="new 0 0 322.02 322.02" xml:space="preserve">
<title>HTML5 Logo</title>
<g>
	<path fill-rule="evenodd" clip-rule="evenodd" fill="#3C3C3C" d="M73.22,313.51V105.945H4.235V313.51H73.22L73.22,313.51z
		 M38.731,77.615c24.054,0,39.031-15.95,39.031-35.871C77.315,21.386,62.785,5.882,39.19,5.882
		c-23.607,0-39.031,15.503-39.031,35.862c0,19.921,14.972,35.871,38.125,35.871H38.731L38.731,77.615z"/>
	<path fill-rule="evenodd" clip-rule="evenodd" fill="#3C3C3C" d="M111.401,313.51h68.989V197.598c0-6.203,0.45-12.405,2.273-16.834
		c4.985-12.397,16.342-25.239,35.396-25.239c24.971,0,34.954,19.044,34.954,46.942V313.51h68.982V194.494
		c0-63.753-34.034-93.42-79.427-93.42c-37.22,0-53.559,20.809-62.636,34.976h0.456v-30.104h-68.989
		C112.307,125.414,111.401,313.51,111.401,313.51L111.401,313.51z"/>
</g>
</svg>
