<?xml version="1.0" encoding="utf-8"?>
<!-- Generator: Adobe Illustrator 16.0.0, SVG Export Plug-In . SVG Version: 6.00 Build 0)  -->
<!DOCTYPE svg PUBLIC "-//W3C//DTD SVG 1.1//EN" "http://www.w3.org/Graphics/SVG/1.1/DTD/svg11.dtd">
<svg version="1.1" id="Layer_1" xmlns="http://www.w3.org/2000/svg" xmlns:xlink="http://www.w3.org/1999/xlink" x="0px" y="0px"
	 width="322.02px" height="322.02px" viewBox="0 0 322.02 322.02" enable-background="new 0 0 322.02 322.02" xml:space="preserve">
<title>HTML5 Logo</title>
<path fill="#201B6E" d="M152.175,283.316c2.846,1.312,5.48,37.812,5.48,37.812h8.117c0,0,1.456-38.428,5.272-41.97
	c3.815-3.542-10.544-45.855-10.544-45.855S149.33,282.003,152.175,283.316z"/>
<path opacity="0.4" fill="#FFFFFF" d="M152.175,283.316c2.846,1.312,5.48,37.812,5.48,37.812h8.117c0,0,1.456-38.428,5.272-41.97
	c3.815-3.542-10.544-45.855-10.544-45.855S149.33,282.003,152.175,283.316z"/>
<path fill="#201B6E" d="M170.363,279.371c-10.198-4.786-10.821-31.842-10.821-31.842S157.613-4.502,157.64-0.963
	c0.027,3.539,12.723,22.478,12.723,22.478s55.775,65.141,59.105,112.384C232.798,181.141,235.295,224.221,170.363,279.371z"/>
<path fill="#201B6E" d="M157.973,0.079c0.236,2.914-0.805,5.619-19.743,22.476c-18.939,16.858-40.167,57.44-44.953,75.547
	c-4.787,18.106-11.863,51.404-3.33,94.485c8.533,43.08,60.978,90.323,62.228,90.53c1.248,0.209,7.617-46.414,7.617-46.414
	S157.738-2.835,157.973,0.079z"/>
<path opacity="0.2" fill="#FFFFFF" d="M157.973,0.079c0.236,2.914-0.805,5.619-19.743,22.476
	c-18.939,16.858-40.167,57.44-44.953,75.547c-4.787,18.106-11.863,51.404-3.33,94.485c8.533,43.08,60.978,90.323,62.228,90.53
	c1.248,0.209,7.617-46.414,7.617-46.414S157.738-2.835,157.973,0.079z"/>
</svg>
