<?xml version="1.0" encoding="utf-8"?>
<!-- Generator: Adobe Illustrator 16.0.0, SVG Export Plug-In . SVG Version: 6.00 Build 0)  -->
<!DOCTYPE svg PUBLIC "-//W3C//DTD SVG 1.1//EN" "http://www.w3.org/Graphics/SVG/1.1/DTD/svg11.dtd">
<svg version="1.1" id="Layer_1" xmlns="http://www.w3.org/2000/svg" xmlns:xlink="http://www.w3.org/1999/xlink" x="0px" y="0px"
	 width="322.02px" height="322.02px" viewBox="0 0 322.02 322.02" enable-background="new 0 0 322.02 322.02" xml:space="preserve">
<title>HTML5 Logo</title>
<path fill="#201B6E" d="M313.626,193.557c-3.414-3.953-9.241-2.874-13.753-1.977c-10.819,1.925-22.588,4.188-33.076-0.324
	c18.732-29.56,33.454-61.823,41.698-95.882c2.998-12.952,5.312-26.191,4.871-39.507c-0.32-7.465-1.365-15.411-5.91-21.588
	c-11.295-14.876-27.643-25.723-45.68-30.56c-22.521-6.113-46.678-4.292-68.824,2.549c-1.828,0.377-3.635-0.443-5.423-0.677
	c-20.105-4.083-42.271-2.471-59.704,9.168C106.895,7.23,84.397,2.679,62.12,5.02C45.56,6.736,28.921,14.436,19.414,28.532
	C7.392,46.139,5.76,68.624,7.678,89.249c3.862,27.4,10.546,54.372,19.038,80.666c5.598,16.386,11.762,32.928,21.724,47.245
	c5.059,7.01,11.781,14.122,20.826,15.229c8.043,0.976,15.319-4.019,20.248-9.936c8.524-10.17,17.296-20.195,26.393-29.897
	c5.937,2.913,12.38,4.591,18.979,5.085c-3.569,4.239-6.508,9.767-12.191,11.431c-7.66,2.951-16.626,2.562-23.369,7.66
	c-3.902,2.783-4.083,8.842-0.585,12.055c6.32,6.125,15.638,7.451,24.052,8.154c11.919,0.922,23.967-3.096,33.018-10.897
	c-0.058,18.947,0.026,37.959,2.166,56.802c1.061,11.041,5.82,22.056,14.22,29.468c7.907,6.919,19.2,8.35,29.246,6.606
	c9.853-1.886,19.981-4.837,27.681-11.574c8.193-7.204,11.685-18.127,13.31-28.569c2.938-18.74,5.163-37.558,7.296-56.4
	c21.066,3.551,44.905-0.469,60.666-15.866C313.749,203.337,316.943,197.849,313.626,193.557z M266.868,15.32
	c12.642,4.811,23.876,13.146,32.316,23.706c4.024,5.046,4.537,11.822,4.798,18.012c0.183,14.772-2.802,29.376-6.605,43.59
	c-7.256,26.295-18.285,51.497-32.134,74.957c-1.358,2.341-2.854,4.552-4.495,6.685c-0.142-0.65-0.388-1.964-0.525-2.602
	c1.717-4.524,4.247-8.79,5.215-13.602c3.467-13.525,0.554-27.465-0.707-41.095c-1.301-12.848,3.094-25.384,2.972-38.206
	c0.499-6.282-1.984-12.224-4.403-17.855c-8.738-19.545-22.642-36.919-40.456-48.857c-4.357-2.978-9.215-5.072-13.544-8.062
	c18.953-4.058,39.279-3.564,57.558,3.329H266.868z M255.306,124.998c1.113,15.215,5.528,31.562-1.638,45.996
	c-9.629-19.142-22.062-37.414-26.385-58.728c-1.222-6.775-1.527-15.358,4.492-20.079c7.634-5.422,17.621-4.201,26.457-3.654
	c-0.37,12.198-4.127,24.175-2.898,36.464H255.306z M83.35,215.158c-3.453,4.058-8.115,8.907-13.999,7.685
	c-6.873-1.978-11.248-8.271-15.085-13.901c-10.358-16.568-16.6-35.281-22.322-53.852c-6.411-21.977-11.808-44.319-14.916-67.024
	c-1.554-17.27-0.579-35.801,8.251-51.186c6.626-11.652,18.974-19.091,31.938-21.509c20.782-4.006,42.076,0.234,62.012,6.32
	c-8.797,9.663-15.645,21.042-19.644,33.5c-5.435,16.646-7.919,34.345-6.619,51.836c0.754,12.328,0.429,24.695-1.287,36.906
	c-2.166,15.97,4.246,32.381,16.092,43.148c-8.069,9.429-16.62,18.414-24.436,28.077H83.35z M101.537,158.003
	c-2.036-9.051,0.624-18.142,0.923-27.192c0.703-10.247-0.025-20.508-0.228-30.755c9.578-6.19,20.774-11.028,32.381-10.365
	c6.007,0.26,11.555,4.512,13.004,10.43c5.274,20.989,6.899,44.344-3.199,64.228c-3.524,7.66-6.385,15.605-8.843,23.669
	C118.781,188.187,104.509,173.998,101.537,158.003L101.537,158.003z M153.795,214.156c-10.54,14.306-31.639,17.009-46.886,9.245
	c7.517-3.471,16.307-3.212,23.57-7.49c7.021-3.784,9.805-12.106,16.366-16.372c7.146-1.015,12.368,9.598,6.964,14.617H153.795z
	 M244.209,197.484c-3.999,6.464-2.596,14.317-3.576,21.483c-2.309,20.078-4.553,40.184-7.829,60.133
	c-1.555,9.57-5.604,19.728-14.623,24.474c-9.26,4.708-19.994,7.66-30.406,6.061c-9.862-1.73-16.092-10.951-18.881-19.909
	c-2.056-7.517-2.271-15.372-2.849-23.11c-0.995-18.674-1.008-37.413-0.532-56.126c0.415-7.282-3.337-14.891-9.857-18.441
	c-3.154-1.78-6.848-2.015-10.372-2.313c2.771-13.732,11.138-25.594,14.007-39.325c3.727-16.958,1.664-34.644-2.139-51.42
	c-1.86-8.362-8.232-15.761-16.692-17.79c-13.05-3.276-26.204,1.821-37.869,7.27c1.476-18.947,6.548-38.363,18.155-53.747
	c8.544-11.458,21.789-19.091,35.918-20.938c23.331-2.965,47.836,3.459,66.375,18.05c15.317,12.107,27.412,28.506,33.934,46.946
	c-10.832-0.39-23.128-0.833-31.898,6.71c-7.946,6.697-8.975,18.141-7.186,27.751c4.148,22.835,17.633,42.264,27.569,62.812
	c2.653,4.811,6.203,9.024,9.592,13.342c-4.027,2.029-8.507,3.979-10.815,8.115L244.209,197.484z M272.128,213.648
	c-7.165,0.847-14.61,1.093-21.509-1.262c0.025-3.914-0.195-8.556,2.938-11.47c2.497-1.819,6.022-3.51,8.909-1.508
	c12.21,6.424,26.419,3.29,39.422,1.717C293.938,208.863,282.948,212.466,272.128,213.648z M234.578,95.049
	c-2.534,2.094,0.195,5.215,2.387,6.203c5.299,3.095,12.576-1.249,12.738-7.308c-4.799-2.211-10.794-2.002-15.139,1.105H234.578z
	 M140.784,104.712c2.251-1.275,4.643-4.786,2.023-6.906c-3.72-3.03-9.129-3.603-13.668-2.379c-1.463,0.494-2.998,1.495-2.699,3.276
	c1.053,6.086,9.194,9.779,14.332,6.009H140.784z"/>
</svg>
