<?xml version="1.0" encoding="utf-8"?>
<!-- Generator: Adobe Illustrator 16.0.0, SVG Export Plug-In . SVG Version: 6.00 Build 0)  -->
<!DOCTYPE svg PUBLIC "-//W3C//DTD SVG 1.1//EN" "http://www.w3.org/Graphics/SVG/1.1/DTD/svg11.dtd">
<svg version="1.1" id="Layer_1" xmlns="http://www.w3.org/2000/svg" xmlns:xlink="http://www.w3.org/1999/xlink" x="0px" y="0px"
	 width="322.02px" height="322.02px" viewBox="0 0 322.02 322.02" enable-background="new 0 0 322.02 322.02" xml:space="preserve">
<title>HTML5 Logo</title>
<path fill="#FFFFFF" d="M13.403,17.593h294.874v286.831H13.403V17.593z"/>
<path fill="#201B6E" d="M13.403,17.593h294.874v286.831H13.403V17.593z M0,317.828h321.681V4.19H0V317.828z M216.866,132.862
	c-10.589,0-14.207,5.361-14.207,9.784c0,4.825,2.413,8.176,16.62,15.548c21.043,10.187,27.611,19.972,27.611,34.313
	c0,21.445-16.353,32.971-38.468,32.971c-11.662,0-21.714-2.412-27.478-5.762c-0.938-0.402-1.072-1.074-1.072-2.145v-19.705
	c0-1.34,0.67-1.742,1.608-1.07c8.444,5.494,18.095,7.906,26.941,7.906c10.588,0,15.012-4.422,15.012-10.453
	c0-4.826-3.083-9.115-16.621-16.084c-19.033-9.115-26.94-18.363-26.94-33.776c0-17.292,13.538-31.632,36.993-31.632
	c11.527,0,19.569,1.743,23.992,3.752c1.072,0.67,1.34,1.743,1.34,2.681v18.362c0,1.073-0.67,1.743-2.011,1.34
	C234.291,135.141,225.578,132.862,216.866,132.862L216.866,132.862z M101.597,148.812c3.083,0.268,5.496,0.268,10.856,0.268
	c15.683,0,30.426-5.495,30.426-26.807c0-17.022-10.589-25.601-28.416-25.601c-5.36,0-10.454,0.268-12.867,0.402V148.812
	L101.597,148.812z M77.74,77.64c0-0.938,1.876-1.609,2.949-1.609c8.579-0.402,21.311-0.67,34.58-0.67
	c37.127,0,51.603,20.373,51.603,46.376c0,34.044-24.662,48.653-54.953,48.653c-5.093,0-6.835-0.268-10.454-0.268v51.469
	c0,1.072-0.402,1.609-1.609,1.609H79.348c-1.073,0-1.608-0.402-1.608-1.609V77.64L77.74,77.64z"/>
</svg>
