<?xml version="1.0" encoding="utf-8"?>
<!-- Generator: Adobe Illustrator 16.0.0, SVG Export Plug-In . SVG Version: 6.00 Build 0)  -->
<!DOCTYPE svg PUBLIC "-//W3C//DTD SVG 1.1//EN" "http://www.w3.org/Graphics/SVG/1.1/DTD/svg11.dtd">
<svg version="1.1" id="Layer_1" xmlns="http://www.w3.org/2000/svg" xmlns:xlink="http://www.w3.org/1999/xlink" x="0px" y="0px"
	 width="322.02px" height="322.02px" viewBox="0 0 322.02 322.02" enable-background="new 0 0 322.02 322.02" xml:space="preserve">
<title>HTML5 Logo</title>
<path fill-rule="evenodd" clip-rule="evenodd" fill="#3C3C3C" d="M47.366,160.317c0-46.325-0.011-92.648,0.008-138.973
	C47.379,10.496,53.036,2.8,62.896,0.449c2.479-0.592,5.141-0.576,7.719-0.576c64.357-0.03,128.715-0.026,193.074-0.022
	c13.498,0.001,21.399,7.823,21.414,21.415c0.043,41.365,0.013,82.729,0.007,124.096c-0.002,24.119-0.039,48.239,0.029,72.359
	c0.007,2.526-0.627,4.389-2.473,6.24c-31.433,31.529-62.81,63.114-94.119,94.768c-2.006,2.029-3.996,2.777-6.792,2.772
	c-37.533-0.078-75.066-0.046-112.598-0.053c-13.14-0.003-21.812-8.693-21.812-21.824c0-46.435,0-92.87,0-139.306
	C47.352,160.317,47.36,160.317,47.366,160.317z M57.168,160.141c0,45.976-0.002,91.952,0.002,137.925
	c0,9.614,3.941,13.574,13.51,13.577c35.158,0.005,70.316,0.008,105.473-0.016c1.681-0.002,3.409-0.051,5.029-0.438
	c2.638-0.632,4.237-2.189,4.227-5.229c-0.076-20.735-0.094-41.468-0.064-62.2c0.004-2.347,0.095-4.777,0.69-7.024
	c2.485-9.376,10.646-15.051,21.455-15.063c19.042-0.02,38.086,0.021,57.128-0.002c2.131-0.003,4.307-0.016,6.382-0.424
	c2.823-0.559,4.604-2.242,4.329-5.441c-0.086-1.007-0.034-2.027-0.034-3.042c-0.001-63.554,0.005-127.108-0.009-190.662
	c-0.001-9.06-3.429-12.446-12.492-12.447c-63.779-0.005-127.56-0.005-191.339,0.012c-1.908,0-3.844,0.046-5.719,0.355
	c-4.845,0.799-8.019,4.263-8.452,9.154c-0.168,1.903-0.111,3.829-0.111,5.743C57.166,69.993,57.167,115.066,57.168,160.141z"/>
<path fill-rule="evenodd" clip-rule="evenodd" fill="#3C3C3C" d="M244.512,156.228c-52.558,0-104.643,0-156.998,0
	c0-3.15,0-6.116,0-9.411c1.296-0.074,2.494-0.199,3.691-0.199c50.006-0.015,100.013-0.005,150.019-0.066
	c2.404-0.002,3.58,0.534,3.326,3.175C244.359,151.725,244.512,153.758,244.512,156.228z"/>
<path fill-rule="evenodd" clip-rule="evenodd" fill="#3C3C3C" d="M244.308,188.137c0,3.096,0,5.984,0,9.219
	c-52.164,0-104.329,0-156.779,0c0-2.993,0-5.96,0-9.219C139.692,188.137,191.777,188.137,244.308,188.137z"/>
<path fill-rule="evenodd" clip-rule="evenodd" fill="#3C3C3C" d="M87.444,238.693c0-3.166,0-6.053,0-9.345
	c1.702-0.084,3.336-0.231,4.97-0.233c26.338-0.011,52.677,0.053,79.014-0.074c3.207-0.015,4.572,0.741,4.14,4.077
	c-0.227,1.745-0.04,3.546-0.04,5.575C146.063,238.693,116.973,238.693,87.444,238.693z"/>
<path fill-rule="evenodd" clip-rule="evenodd" fill="#3C3C3C" d="M87.747,279.959c-0.204-0.5-0.34-0.698-0.361-0.906
	c-0.871-8.686-0.869-8.67,7.743-8.67c25.214,0.005,50.427-0.003,75.642-0.016c4.752-0.003,4.752-0.027,4.757,4.7
	c0.002,1.551,0,3.101,0,4.892C146.055,279.959,116.964,279.959,87.747,279.959z"/>
<path fill-rule="evenodd" clip-rule="evenodd" fill="#3C3C3C" d="M244.515,73.929c-4.057,0-7.628,0-11.2,0
	c-17.664-0.001-35.331-0.065-52.996,0.056c-2.885,0.02-4.188-0.641-3.812-3.719c0.228-1.862,0.042-3.773,0.042-6.163
	c1.665,0,2.97,0,4.274,0c19.916-0.001,39.833,0.057,59.749-0.067c2.993-0.018,4.396,0.643,3.982,3.867
	C244.328,69.663,244.515,71.477,244.515,73.929z"/>
<path fill-rule="evenodd" clip-rule="evenodd" fill="#3C3C3C" d="M176.547,105.553c22.848,0,45.175,0,67.735,0
	c0,3.184,0,6.15,0,9.608c-1.47,0-2.777,0-4.085,0c-19.917,0.002-39.833-0.06-59.749,0.076c-3.07,0.02-4.32-0.775-3.939-3.917
	C176.723,109.56,176.547,107.753,176.547,105.553z"/>
<g>
	<path fill-rule="evenodd" clip-rule="evenodd" fill="#3C3C3C" d="M125.836,129.874c-12.304,0.157-24.115-2.04-35.284-7.406
		c-2.719-1.307-3.983-3.106-4.237-6.177c-0.642-7.79,2.084-13.039,9.47-16.042c4.339-1.766,8.996-2.745,13.492-4.136
		c1.491-0.462,3.088-0.865,4.349-1.72c2.19-1.488,2.888-3.416,1.441-6.083c-1.647-3.036-2.826-6.323-4.249-9.483
		c-0.49-1.091-0.969-2.225-1.678-3.173c-2.094-2.802-4.39-5.373-1.626-9.186c0.701-0.965,0.13-2.848,0.161-4.308
		c0.203-9.518,6.392-15.891,15.847-16.177c2.46-0.075,5-0.12,7.384,0.386c9.089,1.928,14.028,9.092,13.117,18.318
		c-0.232,2.35,0.913,5.031,0.156,7.096c-2.078,5.662-4.704,11.139-7.371,16.562c-1.327,2.703-1.007,4.99,2.06,6.3
		c2.862,1.223,6.007,1.768,8.967,2.784c3.801,1.305,7.788,2.344,11.255,4.283c5.823,3.259,8.27,11.381,5.555,17.476
		c-0.607,1.365-2.166,2.537-3.562,3.281c-8.888,4.744-18.569,6.583-28.49,7.378C130.354,130.027,128.088,129.874,125.836,129.874z"
		/>
</g>
</svg>
