<?xml version="1.0" encoding="utf-8"?>
<!-- Generator: Adobe Illustrator 16.0.0, SVG Export Plug-In . SVG Version: 6.00 Build 0)  -->
<!DOCTYPE svg PUBLIC "-//W3C//DTD SVG 1.1//EN" "http://www.w3.org/Graphics/SVG/1.1/DTD/svg11.dtd">
<svg version="1.1" id="Layer_1" xmlns="http://www.w3.org/2000/svg" xmlns:xlink="http://www.w3.org/1999/xlink" x="0px" y="0px"
	 width="322.02px" height="322.02px" viewBox="0 0 322.02 322.02" enable-background="new 0 0 322.02 322.02" xml:space="preserve">
<title>HTML5 Logo</title>
<path fill="#201B6E" d="M284.957,284.67c0,20.031-16.236,36.261-36.254,36.261H32.634V36.26C32.634,16.236,48.867,0,68.891,0
	h216.066V284.67z"/>
<path fill="#201B6E" d="M279.141,281.264c0,19.275-14.47,33.751-33.757,33.751H38.45V39.673c0-19.282,14.467-33.751,33.758-33.751
	h206.933V281.264z"/>
<path opacity="0.2" fill="#FFFFFF" d="M279.141,281.264c0,19.275-14.47,33.751-33.757,33.751H38.45V39.673
	c0-19.282,14.467-33.751,33.758-33.751h206.933V281.264z"/>
<polygon fill="#201B6E" points="91.158,6.203 91.935,76.351 39.804,93.805 "/>
<polygon fill="#201B6E" points="91.158,6.203 91.935,76.351 160.733,47.673 "/>
<polygon fill="#201B6E" points="62.674,145.545 91.935,76.351 39.804,93.805 "/>
<polygon fill="#201B6E" points="62.674,145.545 91.548,215.894 39.226,199.033 "/>
<polygon fill="#201B6E" points="91.255,314.535 91.548,215.894 39.226,199.033 "/>
<polygon fill="#201B6E" points="91.255,314.535 39.226,314.548 39.226,199.033 "/>
<polygon fill="#201B6E" points="91.255,314.535 91.548,215.894 160.608,244.311 "/>
<polygon fill="#201B6E" points="229.721,6.589 230.494,76.745 160.733,47.673 "/>
<polygon fill="#201B6E" points="229.721,6.589 230.494,76.745 278.954,93.998 "/>
<polygon fill="#201B6E" points="258.937,146.363 230.494,76.745 278.954,93.998 "/>
<polygon fill="#201B6E" points="258.937,146.363 230.309,215.595 278.855,198.26 "/>
<polygon fill="#201B6E" points="230.881,314.348 230.309,215.595 278.855,198.26 "/>
<polygon fill="#201B6E" points="230.881,314.348 230.309,215.595 160.655,244.286 "/>
<polygon opacity="0.4" fill="#FFFFFF" points="91.158,6.203 91.935,76.351 160.733,47.673 "/>
<polygon opacity="0.4" fill="#FFFFFF" points="62.674,145.545 91.935,76.351 39.804,93.805 "/>
<polygon opacity="0.4" fill="#FFFFFF" points="62.674,145.545 91.548,215.894 39.226,199.033 "/>
<polygon opacity="0.4" fill="#FFFFFF" points="91.255,314.535 91.548,215.894 160.608,244.311 "/>
<polygon opacity="0.4" fill="#FFFFFF" points="229.721,6.589 230.494,76.745 160.733,47.673 "/>
<polygon opacity="0.4" fill="#FFFFFF" points="258.937,146.363 230.494,76.745 278.954,93.998 "/>
<polygon opacity="0.4" fill="#FFFFFF" points="258.937,146.363 230.309,215.595 278.855,198.26 "/>
<polygon opacity="0.4" fill="#FFFFFF" points="230.881,314.348 230.309,215.595 160.655,244.286 "/>
<polygon fill="#201B6E" points="230.881,314.348 91.277,314.548 160.655,244.286 "/>
<path fill="#FFFFFF" d="M167.803,167.08l15.699,7.193l-1.597-11.188l-14.321-7.7L167.803,167.08z M48.721,204.557l20.445,2.327
	l4.458-19l-19.575-3.477L48.721,204.557z M121.441,72.97l-13.369-9.891l-9.304,12.649l14.68,9.16L121.441,72.97z M162.427,39.68
	l-8.573-11.188l-12.062,7.12l10.027,10.907L162.427,39.68z M206.609,31.83l-2.759-9.148l-14.532-1.166l4.213,10.027L206.609,31.83z
	 M255.741,43.318l-12.206-8.724v5.666l11.769,7.276L255.741,43.318z M90.772,124.567l-16.713-7.27l-5.669,16.567l17.153,6.395
	L90.772,124.567z M173.987,117.073l-2.981,10.252l10.756,9.89l2.689-9.528L173.987,117.073z M242.662,71.229l8.936,0.437
	l0.075-4.149l-9.305-1.891L242.662,71.229z M205.498,36.634c-42.994-2.09-119.956,38.656-131.007,202.123h105.423
	c-23.639-61.238-20.897-107.444-4.643-138.756c23.636-45.539,58.817-48.553,91.664-29.359c1.161-2.758,2.759-6.252,2.759-6.252
	C250.949,46.369,233.402,37.988,205.498,36.634z M208.656,70.567l3.919,9.372l7.269-3.918l-2.689-8.649L208.656,70.567z
	 M184.813,91.857l7.994,10.983l4.941-7.195l-6.977-10.832L184.813,91.857z M197.024,219.626l-4.941-11.993l-18.245-3.413
	l4.804,13.802L197.024,219.626z"/>
<g>
	<polygon fill="#FFFFFF" points="101.124,72.539 113.731,67.272 108.072,63.079 	"/>
	<polygon fill="#FFFFFF" points="151.82,46.519 155.167,44.359 143.361,37.321 	"/>
</g>
<g>
	<polygon fill="#FFFFFF" points="54.05,184.407 49.32,202.285 60.536,205.898 69.166,206.884 73.624,187.884 	"/>
	<path fill="#FFFFFF" d="M80.457,188.869c-1.27,7.145-2.39,14.601-3.351,22.37l14.442,4.654L80.457,188.869z"/>
</g>
<g>
	<polygon fill="#FFFFFF" points="49.32,202.285 48.721,204.557 60.536,205.898 	"/>
	<path fill="#FFFFFF" d="M91.548,215.894l-14.442-4.654c-1.076,8.767-1.965,17.928-2.614,27.518H91.48L91.548,215.894z"/>
</g>
<polygon fill="#FFFFFF" points="91.48,238.757 147.118,238.757 91.548,215.894 "/>
<path fill="#FFFFFF" d="M246.82,36.94l-3.284-2.346v5.666l7.901,4.886L246.82,36.94z M255.648,52.621
	c-7.931-5.61-16.167-9.622-25.547-12.249l0.208,19.132c11.505,0.012,23.368,3.712,34.961,10.202L255.648,52.621z M242.662,71.229
	l8.936,0.437l0.075-4.149l-9.305-1.891L242.662,71.229z"/>
<path fill="#FFFFFF" d="M230.101,40.372c-7.355-2.071-15.412-3.301-24.603-3.738c-12.63-0.611-28.204,2.478-44.169,11.288
	l43.77,18.245c8.036-4.573,16.523-6.676,25.21-6.664L230.101,40.372z M206.609,31.83l-2.759-9.148l-0.998-0.087l-10.464,6.227
	l1.143,2.721L206.609,31.83z M212.343,69.175l6.172,2.577l-1.361-4.38L212.343,69.175z"/>
<path fill="#FFFFFF" d="M92.515,275.585v-7.775c0-4.149-4.137-11.6-11.7-11.6c-7.557,0-24.635,0-24.635,0v46.606h12.599v-13.571
	l10.174,13.571h15.115L82.244,287.11C82.244,287.11,92.515,285.082,92.515,275.585z M80.117,277.906H68.679v-9.404h11.438V277.906z
	 M129.051,256.005h-11.438c-5.716,0-11.722,5.241-11.722,12.117c0,6.877,0,34.487,0,34.487h12.399v-9.098h11.145v9.098h12.601
	c0,0,0-27.805,0-34.581C142.035,261.246,135.929,256.005,129.051,256.005z M129.434,281.009H118.29v-12.5h11.145V281.009z
	 M244.772,272.821c-5.528,0-12.137,0-12.137,0v-5.087h21.291V256.18c0,0-13.884,0-21.366,0c-7.487,0-12.647,5.952-12.647,11.918
	v4.942c0,7.194,6.471,12.21,12.505,12.21c6.026,0,11.262,0,11.262,0v5.667h-22.961v11.769c0,0,15.91,0,22.668,0
	c6.759,0,12.867-5.086,12.867-11.258v-6.178C256.253,277.757,250.294,272.821,244.772,272.821z M193.966,256.104h-12.493v46.656
	h31.177v-12.506h-18.684V256.104z M155.454,302.761h12.5v-46.656h-12.5V302.761z"/>
<polygon opacity="0.6" fill="#FFFFFF" points="91.255,314.535 91.548,215.894 39.226,199.033 "/>
<polygon opacity="0.6" fill="#FFFFFF" points="229.721,6.589 230.494,76.745 278.954,93.998 "/>
</svg>
