<?xml version="1.0" encoding="utf-8"?>
<!-- Generator: Adobe Illustrator 16.0.0, SVG Export Plug-In . SVG Version: 6.00 Build 0)  -->
<!DOCTYPE svg PUBLIC "-//W3C//DTD SVG 1.1//EN" "http://www.w3.org/Graphics/SVG/1.1/DTD/svg11.dtd">
<svg version="1.1" id="Layer_1" xmlns="http://www.w3.org/2000/svg" xmlns:xlink="http://www.w3.org/1999/xlink" x="0px" y="0px"
	 width="322.02px" height="322.02px" viewBox="0 0 322.02 322.02" enable-background="new 0 0 322.02 322.02" xml:space="preserve">
<title>HTML5 Logo</title>
<polyline fill="#201B6E" points="242.058,310.71 259.51,190.604 319.411,110.977 "/>
<polyline opacity="0.4" fill="#FFFFFF" points="242.058,310.71 259.51,190.604 319.411,110.977 "/>
<g>
	
		<ellipse transform="matrix(0.8904 -0.4552 0.4552 0.8904 -29.7272 71.4611)" fill="#201B6E" cx="133.509" cy="97.452" rx="110.472" ry="48.713"/>
	<path fill="#201B6E" d="M4.51,191.843c0,0-7,26.667-4.51,36.667s14.51,27,39.177,35c-0.322-5.477-7.805-91.588-8.307-97.363
		c-0.018-0.2-0.026-0.304-0.026-0.304"/>
	<path fill="#201B6E" d="M103.51,170.855L39.177,264.51c0,0,37.667,5.667,80-1"/>
	<path fill="#201B6E" d="M202.51,123.51l-7.666,112c0,0,41.332-22.666,64.666-44.333"/>
	<path fill="#201B6E" d="M244.177,61.51l57.333,85.333c0,0,20.51-31.448,20.51-49.391"/>
</g>
<path fill="#201B6E" d="M103.305,171.061l90.937,64.743c0,0-42.119,22.46-76.154,27.926"/>
<path opacity="0.2" fill="#FFFFFF" d="M118.088,263.729c34.035-5.466,76.154-27.926,76.154-27.926l-90.937-64.743"/>
<path fill="#201B6E" d="M259.884,191.352c24.959-19.675,41.421-44.18,41.421-44.18l-99.011-24.137"/>
<path opacity="0.2" fill="#FFFFFF" d="M259.884,191.352c24.959-19.675,41.421-44.18,41.421-44.18l-99.011-24.137"/>
<path fill="#201B6E" d="M244.511,61.51c0,0,40.25-9,46.5-10.25c9.583,3.5,33.249,14.802,30.666,46.193"/>
<path opacity="0.2" fill="#FFFFFF" d="M244.511,61.51c0,0,40.25-9,46.5-10.25c9.583,3.5,33.249,14.802,30.666,46.193"/>
<polyline fill="#201B6E" points="102.635,170.855 194.343,235.759 194.844,235.593 202.508,123.345 "/>
<polyline opacity="0.4" fill="#FFFFFF" points="202.508,123.345 194.844,235.593 194.343,235.759 102.635,170.855 "/>
<polyline fill="#201B6E" points="202.791,123.035 244.177,61.729 301.51,146.843 301.305,147.172 "/>
<polyline opacity="0.4" fill="#FFFFFF" points="202.791,123.035 244.177,61.729 301.51,146.843 301.305,147.172 "/>
<polyline fill="#201B6E" points="102.925,171.061 30.891,166.39 39.177,264.135 41.435,263.135 "/>
<path fill="#201B6E" d="M103.224,171.272"/>
<polyline opacity="0.5" fill="#FFFFFF" points="102.925,171.061 30.891,166.39 39.177,264.135 41.435,263.135 "/>
<path fill="#201B6E" d="M30.87,166.146c0,0-1.297-34.949-1.422-37.887s-20.602,40.213-25,63.312"/>
<path opacity="0.4" fill="#FFFFFF" d="M30.87,166.146c0,0-1.297-34.949-1.422-37.887s-20.602,40.213-25,63.312"/>
<path fill="#201B6E" d="M224.76,31.51c5.917-1.5,63.5,16.5,65.917,19.75c0.562,0.757-46.261,10.172-46.261,10.172"/>
<path opacity="0.4" fill="#FFFFFF" d="M224.76,31.51c5.917-1.5,63.5,16.5,65.917,19.75c0.562,0.757-46.261,10.172-46.261,10.172"/>
<polyline fill="#201B6E" points="194.844,235.593 241.635,310.71 259.51,191.885 "/>
<polyline fill="#201B6E" points="41.041,264.761 241.135,310.71 118.635,263.64 "/>
<polyline fill="#201B6E" points="194.625,235.021 117.396,263.225 242.058,311.322 "/>
<polyline opacity="0.4" fill="#FFFFFF" points="194.625,235.021 117.396,263.225 242.058,311.322 "/>
</svg>
